<?xml version="1.0" encoding="UTF-8"?>
<svg width="60" height="60" viewBox="0 0 60 60" xmlns="http://www.w3.org/2000/svg">
  <g fill="#16a34a">
    <path d="M27.8,30l-0.01-0.01L7.1,9.3c-1.4-1.4-3.6-1.4-5,0c-1.4,1.4-1.4,3.6,0,5l0.02,0.02l15.6,15.6h-0.03l0.01,0.01l-0.01,0.01h0.03L2.12,45.5l0.02,0.02c-1.4,1.4-1.4,3.6,0,5c1.4,1.4,3.6,1.4,5,0L27.8,30z"/>
    <path d="M57.8,30l0.01-0.01L37.1,9.3c-1.4-1.4-3.6-1.4-5,0c-1.4,1.4-1.4,3.6,0,5l0.02,0.02l15.6,15.6h-0.03l0.01,0.01l-0.01,0.01h0.03L32.12,45.5l0.02,0.02c-1.4,1.4-1.4,3.6,0,5c1.4,1.4,3.6,1.4,5,0L57.8,30z"/>
  </g>
</svg>